<?xml version="1.0" encoding="UTF-8" standalone="no"?>
<svg
   xmlns:dc="http://purl.org/dc/elements/1.1/"
   xmlns:cc="http://creativecommons.org/ns#"
   xmlns:rdf="http://www.w3.org/1999/02/22-rdf-syntax-ns#"
   xmlns:svg="http://www.w3.org/2000/svg"
   xmlns="http://www.w3.org/2000/svg"
   xmlns:sodipodi="http://sodipodi.sourceforge.net/DTD/sodipodi-0.dtd"
   xmlns:inkscape="http://www.inkscape.org/namespaces/inkscape"
   inkscape:export-ydpi="96"
   inkscape:export-xdpi="96"
   inkscape:export-filename="logo-black-01.png"
   width="142.22974mm"
   height="74.18026mm"
   viewBox="0 0 142.22974 74.18026"
   version="1.1"
   id="svg8"
   inkscape:version="1.0 (unknown)"
   sodipodi:docname="logo.svg">
  <defs
     id="defs2">
    <inkscape:path-effect
       split_items="false"
       mirror_copies="false"
       copies_to_360="true"
       gap="0.14"
       rotation_angle="115"
       starting_angle="0"
       num_copies="3"
       method="normal"
       lpeversion="1"
       is_visible="true"
       id="path-effect88"
       origin="150.38,224.46"
       starting_point="0,0"
       effect="copy_rotate" />
    <inkscape:path-effect
       split_items="false"
       mirror_copies="false"
       copies_to_360="true"
       gap="0.14"
       rotation_angle="115"
       starting_angle="0"
       num_copies="3"
       method="normal"
       lpeversion="1"
       is_visible="true"
       id="path-effect61"
       origin="150.38,224.46"
       starting_point="0,0"
       effect="copy_rotate" />
    <inkscape:path-effect
       split_items="false"
       mirror_copies="false"
       copies_to_360="true"
       gap="0.14"
       rotation_angle="115"
       starting_angle="0"
       num_copies="3"
       method="normal"
       lpeversion="1"
       is_visible="true"
       id="path-effect112"
       origin="150.38,224.46"
       starting_point="0,0"
       effect="copy_rotate" />
    <inkscape:path-effect
       split_items="false"
       mirror_copies="false"
       copies_to_360="true"
       gap="0.14"
       rotation_angle="115"
       starting_angle="0"
       num_copies="3"
       method="normal"
       lpeversion="1"
       is_visible="true"
       id="path-effect102"
       origin="150.38,224.46"
       starting_point="0,0"
       effect="copy_rotate" />
    <inkscape:path-effect
       split_items="false"
       mirror_copies="false"
       copies_to_360="true"
       gap="0.14"
       rotation_angle="120"
       starting_angle="-32.577324"
       num_copies="5"
       method="normal"
       lpeversion="1"
       is_visible="true"
       id="path-effect87"
       origin="150.38,224.46"
       starting_point="164.78323,233.66322"
       effect="copy_rotate" />
    <inkscape:path-effect
       split_items="false"
       mirror_copies="false"
       copies_to_360="true"
       gap="0.14"
       rotation_angle="115"
       starting_angle="0"
       num_copies="3"
       method="normal"
       lpeversion="1"
       is_visible="true"
       id="path-effect54"
       origin="150.38,224.46"
       starting_point="0,0"
       effect="copy_rotate" />
    <inkscape:path-effect
       effect="copy_rotate"
       starting_point="250.38,224.46"
       origin="150.38,224.46"
       id="path-effect994"
       is_visible="true"
       lpeversion="1"
       method="normal"
       num_copies="3"
       starting_angle="0"
       rotation_angle="120"
       gap="0.14"
       copies_to_360="true"
       mirror_copies="false"
       split_items="false" />
    <inkscape:path-effect
       split_items="false"
       mirror_copies="false"
       copies_to_360="true"
       gap="0.14"
       rotation_angle="115"
       starting_angle="0"
       num_copies="3"
       method="normal"
       lpeversion="1"
       is_visible="true"
       id="path-effect975"
       origin="150.38,224.46"
       starting_point="0,0"
       effect="copy_rotate" />
    <inkscape:path-effect
       effect="copy_rotate"
       starting_point="0,0"
       origin="150.38,224.46"
       id="path-effect957"
       is_visible="true"
       lpeversion="1"
       method="normal"
       num_copies="3"
       starting_angle="0"
       rotation_angle="115"
       gap="0.14"
       copies_to_360="true"
       mirror_copies="false"
       split_items="false" />
    <mask
       maskUnits="userSpaceOnUse"
       id="mask936">
      <path
         id="path938"
         style="fill:#ffffff;stroke-width:0.696555;paint-order:markers fill stroke"
         d="m 54.700538,183.79446 -23.161895,17.83716 1.438672,1.10794 -15.29364,46.50672 37.05872,2.30942 -0.0011,0.0109 0.08733,-0.006 0.08785,0.006 -0.0011,-0.0109 37.05872,-2.30942 -15.345318,-46.66433 1.234035,-0.95033 z M 75.847051,203.18398 57.897757,223.0608 54.828694,250.77539 51.760149,223.0608 34.395833,203.832 54.700538,219.46877 Z" />
    </mask>
    <mask
       id="mask71"
       maskUnits="userSpaceOnUse">
      <circle
         transform="scale(-1,1)"
         r="13.165795"
         cy="224.51366"
         cx="-150.85294"
         id="circle73"
         style="fill:#ffaaaa;stroke-width:0.457806;paint-order:markers fill stroke" />
    </mask>
  </defs>
  <sodipodi:namedview
     fit-margin-bottom="0"
     fit-margin-right="0"
     fit-margin-left="0"
     fit-margin-top="0"
     id="base"
     pagecolor="#ffffff"
     bordercolor="#666666"
     borderopacity="1.0"
     inkscape:pageopacity="0.0"
     inkscape:pageshadow="2"
     inkscape:zoom="0.98994948"
     inkscape:cx="320.77269"
     inkscape:cy="107.46871"
     inkscape:document-units="mm"
     inkscape:current-layer="layer1"
     inkscape:document-rotation="0"
     showgrid="false"
     inkscape:snap-global="false"
     inkscape:window-width="1366"
     inkscape:window-height="712"
     inkscape:window-x="0"
     inkscape:window-y="0"
     inkscape:window-maximized="1" />
  <metadata
     id="metadata5">
    <rdf:RDF>
      <cc:Work
         rdf:about="">
        <dc:format>image/svg+xml</dc:format>
        <dc:type
           rdf:resource="http://purl.org/dc/dcmitype/StillImage" />
        <dc:title></dc:title>
      </cc:Work>
    </rdf:RDF>
  </metadata>
  <g
     transform="translate(-33.88513,-111.40987)"
     inkscape:label="Layer 1"
     inkscape:groupmode="layer"
     id="layer1">
    <circle
       style="fill:#2b0000;stroke-width:0.79375;paint-order:markers fill stroke"
       id="logo_circle"
       cx="75.893127"
       cy="136.25948"
       r="22.827045" />
    <path
       id="logo_triangles"
       style="fill:#ff2a2a;stroke-width:0.334214;paint-order:markers fill stroke"
       d="m 148.08335,221.15827 2.26685,31.80748 -7.09325,-28.75504 z m 0.58559,6.94155 26.41266,-17.86689 -21.35597,20.52046 z m 5.71877,-3.97791 -28.67951,-13.94059 28.44922,8.23458 z"
       transform="matrix(-1.7338143,0,0,1.7338143,337.44412,-253.0055)"
       sodipodi:nodetypes="cccc"
       inkscape:original-d="m 148.08335,221.15827 2.26685,31.80748 -7.09325,-28.75504 z"
       inkscape:path-effect="#path-effect994" />
    <g
       id="brand_name">
      <path
         id="path855"
         style="font-style:normal;font-variant:normal;font-weight:normal;font-stretch:normal;font-size:38.5016px;line-height:1.25;font-family:'Fengardo Neue';-inkscape-font-specification:'Fengardo Neue';text-align:center;letter-spacing:0px;word-spacing:0px;text-anchor:middle;fill:#2b0000;fill-opacity:1;stroke:none;stroke-width:0.962544"
         d="m 109.4687,155.79179 h 3.11863 c 3.31114,-8.47036 10.04892,-27.10513 10.51094,-28.33718 h -3.34964 l -3.85016,11.74299 -0.57752,2.31009 h -0.0385 l -0.57753,-2.3486 -3.81166,-11.70448 h -3.42664 l 6.16026,17.71073 z" />
      <path
         id="path857"
         style="font-style:normal;font-variant:normal;font-weight:normal;font-stretch:normal;font-size:38.5016px;line-height:1.25;font-family:'Fengardo Neue';-inkscape-font-specification:'Fengardo Neue';text-align:center;letter-spacing:0px;word-spacing:0px;text-anchor:middle;fill:#2b0000;fill-opacity:1;stroke:none;stroke-width:0.962544"
         d="m 126.90986,146.12788 h 3.27263 v -12.051 c 0,-2.65661 1.77108,-4.50468 4.15818,-4.50468 2.00208,0 3.19563,1.07804 3.19563,4.04266 v 12.51302 h 3.27264 v -12.0895 c 0,-2.5411 1.69407,-4.46618 4.15817,-4.46618 2.3871,0 3.19563,1.61706 3.19563,4.00416 v 12.55152 h 3.27264 v -13.20604 c 0,-3.92717 -2.3871,-6.04476 -5.46723,-6.04476 -2.69511,0 -4.8512,1.54007 -5.77524,3.50365 h -0.077 c -0.65453,-2.3486 -2.50261,-3.50365 -4.8512,-3.50365 -2.07909,0 -4.23518,1.11655 -5.31323,3.15714 h -0.0385 c -0.34651,-1.92508 -1.80957,-2.77212 -3.42664,-2.77212 -0.69303,0 -1.27055,0.11551 -1.88658,0.38502 v 2.11758 c 1.50156,0 2.3101,0.23101 2.3101,1.77108 z" />
      <path
         id="path859"
         style="font-style:normal;font-variant:normal;font-weight:normal;font-stretch:normal;font-size:38.5016px;line-height:1.25;font-family:'Fengardo Neue';-inkscape-font-specification:'Fengardo Neue';text-align:center;letter-spacing:0px;word-spacing:0px;text-anchor:middle;fill:#2b0000;fill-opacity:1;stroke:none;stroke-width:0.962544"
         d="m 159.86721,127.06959 -3.27264,1.34756 v 14.01458 c 0,3.85016 3.00313,4.46619 5.77524,3.69615 v -2.31009 c -1.80957,0 -2.5026,-0.61603 -2.5026,-2.54111 z m -3.85016,-6.23726 c 0,1.27056 0.92404,2.19459 2.15609,2.19459 1.30905,0 2.27159,-0.92403 2.27159,-2.19459 0,-1.27055 -0.96254,-2.23309 -2.27159,-2.23309 -1.23205,0 -2.15609,0.96254 -2.15609,2.23309 z" />
      <path
         id="path861"
         style="font-style:normal;font-variant:normal;font-weight:normal;font-stretch:normal;font-size:38.5016px;line-height:1.25;font-family:'Fengardo Neue';-inkscape-font-specification:'Fengardo Neue';text-align:center;letter-spacing:0px;word-spacing:0px;text-anchor:middle;fill:#2b0000;fill-opacity:1;stroke:none;stroke-width:0.962544"
         d="m 166.95148,146.12788 h 3.27264 v -11.04995 c 0.0385,-3.58065 0.73153,-5.12072 3.38814,-5.12072 h 2.00208 l 0.50052,-2.31009 c -0.1925,-0.34652 -1.00104,-0.77004 -1.96358,-0.77004 -2.3871,0 -3.61915,1.42456 -4.08117,3.15714 h -0.077 c -0.34651,-1.92508 -1.84808,-2.77212 -3.46514,-2.77212 -0.69303,0 -1.27056,0.11551 -1.88658,0.38502 v 2.11758 c 1.50156,0 2.31009,0.23101 2.31009,1.77108 z" />
    </g>
    <g
       transform="translate(-109.63355,260.26905)"
       id="g83" />
  </g>
</svg>
